<svg id="Layer_1" data-name="Layer 1" xmlns="http://www.w3.org/2000/svg" viewBox="0 0 512 512"><defs><style>.cls-1{fill:#333}</style></defs><title>social</title><path class="cls-1" d="M286.22 275.95h-57.8a9.76 9.76 0 1 0 0 19.52h57.8a9.76 9.76 0 0 0 0-19.52zM228.49 236.82h28.4a9.8 9.8 0 0 0 0-19.6h-28.4a9.8 9.8 0 1 0 0 19.6z"/><path class="cls-1" d="M257.43 60.5c-108.26 0-196 87.74-196 196s87.74 196 196 196 196-87.74 196-196-87.74-196-196-196zm80.47 225.94a51.47 51.47 0 0 1-51.22 51.22H227.8a51.37 51.37 0 0 1-51.22-51.22v-59.8a51.43 51.43 0 0 1 51.22-51.3h35.83c13.25 1.53 32.46 12.86 39.58 27.95 1.91 4.29 3 4.9 4.59 17.46.92 6.43 1.3 11.18 4.21 13.86 4.06 3.67 19.14 1.15 22.13 3.52l2.3 1.76 1.38 2.83.38 2.3z"/></svg>
