<svg id="Layer_1" data-name="Layer 1" xmlns="http://www.w3.org/2000/svg" viewBox="0 0 512 512"><defs><style>.cls-1{fill:#333}</style></defs><title>social</title><path class="cls-1" d="M257.43 60c-108.11 0-196 87.89-196 196s87.89 196 196 196 196-87.89 196-196-87.59-196-196-196zm55.13 199.06c0 60.33-40.12 100.76-99.53 100.76-58.19 0-105.66-46.55-105.66-103.82S154.84 152.18 213 152.18a107.1 107.1 0 0 1 69.21 25.42l-26.95 30.32a65.15 65.15 0 0 0-42.57-15.62c-35.83 0-64.62 28.48-64.62 63.7 0 34.91 29.09 63.7 64.62 63.7 30.32 0 49.92-14.39 56.35-40.42h-55.71v-40.12h98.92v19.91h.31zm79.63 4.29V294h-24.5v-30.65h-30.64v-24.5h30.63v-30.62h24.5v30.63h30.62v24.5h-30.62z"/></svg>
